{"title":"Lovely.Bones.DVDSCR.AC3.XVID-IMAGINE no rar","uid":5256606,"size":1500312129,"categoryP":"video","categoryS":"movies","magnet":"?xt=urn:btih:c592ffab2f0ccd130c2e1f21ec04ce42a169dae3&amp;dn=Lovely.Bones.DVDSCR.AC3.XVID-IMAGINE+no+rar&amp;tr=udp%3A%2F%2Ftracker.openbittorrent.com%3A80&amp;tr=udp%3A%2F%2Fopen.demonii.com%3A1337&amp;tr=udp%3A%2F%2Ftracker.coppersurfer.tk%3A6969&amp;tr=udp%3A%2F%2Fexodus.desync.com%3A6969","seeders":1,"leechers":0,"uploader":"raymondhome","files":4,"time":1262571877,"description":"Love for All and Sharing is the first step to solving all the problems of humanity.\n\nWebsites I want to share.\n\n    &lt;a href=&quot;\nhttp://www.shareintl.org/&quot; rel=&quot;nofollow&quot; target=&quot;_NEW&quot;&gt;\nhttp://www.shareintl.org/&lt;/a&gt;\n\n    &lt;a href=&quot;\nhttp://www.lightmiddleway.com&quot; rel=&quot;nofollow&quot; target=&quot;_NEW&quot;&gt;\nhttp://www.lightmiddleway.com&lt;/a&gt;\n\n\nThank you very much\n\nNo credit for me...credit to EVERYONE for sharing\n &lt;a href=&quot;\nhttp://thepiratebay.se/user/raymondhome/&quot; rel=&quot;nofollow&quot; target=&quot;_NEW&quot;&gt;\nhttp://thepiratebay.se/user/raymondhome/&lt;/a&gt;\n\nVideo\nID : 0\nFormat : MPEG-4 Visual\nFormat profile : Advanced Simple@L5\nFormat settings, BVOP : Yes\nFormat settings, QPel : No\nFormat settings, GMC : No warppoints\nFormat settings, Matrix : Default (MPEG)\nMuxing mode : Packed bitstream\nCodec ID : XVID\nCodec ID/Hint : XviD\nDuration : 1h 30mn\nBit rate : 1 720 Kbps\nWidth : 720 pixels\nHeight : 304 pixels\nDisplay aspect ratio : 2.35\nFrame rate : 23.976 fps\nResolution : 24 bits\nColorimetry : 4:2:0\nScan type : Progressive\nBits/(Pixel*Frame) : 0.328\nStream size : 1.09 GiB (79%)\nWriting library : XviD 1.2.1 (UTC 2008-12-04)\n\nAudio\nID : 1\nFormat : AC-3\nFormat/Info : Audio Coding 3\nCodec ID : 2000\nDuration : 1h 30mn\nBit rate mode : Constant\nBit rate : 448 Kbps\nChannel(s) : 6 channels\nChannel positions : Front: L C R, Surround: L R, LFE\nSampling rate : 48.0 KHz\nStream size : 290 MiB (21%)\nAlignment : Aligned on interleaves\nInterleave, duration : 42 ms (1.00 video frame)\nInterleave, preload duration : 512 ms\n\nNOTES:\nIMAGiNE bringing you another release.....\nAnother oscar screener .....lovely bones.We used the source files for our rip and also needed to tweak it up some.\nVideo was nice but had bad ivtc and seemed to have a too of glare to it,which you normally fine with cams :hmmm:\nAnyway we fixed it all up and we kept the original AC3 audio track,didn't see the point in converting to mp3 or lowering\nthe quality when the video is this good ;-)\nOnly watermarks are your normal oscar marking at the very bottom of the screen in white.....their not there for that long,nor\nthat often so .....enjoy\n\nAlso know there is other versions out etc...but we thought some of the others were,well over coloured and looked orange.So\nwe decided to do our rip of it.\n\n","torrent":{"xt":"urn:btih:c592ffab2f0ccd130c2e1f21ec04ce42a169dae3","amp;dn":"Lovely.Bones.DVDSCR.AC3.XVID-IMAGINE+no+rar","amp;tr":["udp%3A%2F%2Ftracker.openbittorrent.com%3A80","udp%3A%2F%2Fopen.demonii.com%3A1337","udp%3A%2F%2Ftracker.coppersurfer.tk%3A6969","udp%3A%2F%2Fexodus.desync.com%3A6969"],"infoHash":"c592ffab2f0ccd130c2e1f21ec04ce42a169dae3","infoHashBuffer":{"type":"Buffer","data":[197,146,255,171,47,12,205,19,12,46,31,33,236,4,206,66,161,105,218,227]},"announce":[],"urlList":[]}}